<svg xmlns="http://www.w3.org/2000/svg" width="256" height="256">
  <defs>
    <linearGradient id="bg" x1="0" y1="0" x2="1" y2="1">
      <stop offset="0%" stop-color="#7c9a6b"/>
      <stop offset="100%" stop-color="#5a7d6b"/>
    </linearGradient>
  </defs>
  <rect width="256" height="256" fill="url(#bg)"/>
  <g transform="translate(128,128)" fill="#f0f4e8">
    <path d="M-30,-50 C-50,-50 -55,-30 -55,-10 C-55,10 -45,30 -25,35 C-45,40 -55,55 -55,70 C-55,95 -35,105 -10,105 C10,105 30,100 40,85 C45,78 35,72 30,78 C20,90 5,95 -10,95 C-25,95 -35,85 -35,70 C-35,55 -25,42 -5,42 L10,42 L10,38 L-5,38 C-30,38 -35,30 -35,10 C-35,-5 -30,-20 -15,-20 L-10,-20 L-10,-42 L-5,-42 L-5,-50 L-30,-50 Z"/>
    <path d="M-10,-20 L10,-20 C25,-20 35,-10 35,10 C35,30 25,38 10,38 L-10,38 L-10,-20 Z"/>
  </g>
</svg>
